<?xml version="1.0" encoding="UTF-8" standalone="no"?><!DOCTYPE svg PUBLIC "-//W3C//DTD SVG 1.1//EN" "http://www.w3.org/Graphics/SVG/1.1/DTD/svg11.dtd"><svg width="100%" height="100%" viewBox="0 0 1964 864" version="1.1" xmlns="http://www.w3.org/2000/svg" xmlns:xlink="http://www.w3.org/1999/xlink" xml:space="preserve" style="fill-rule:evenodd;clip-rule:evenodd;stroke-linecap:round;stroke-linejoin:round;stroke-miterlimit:12;"><style>#a .fill,#f .fill{fill:#ffef00;}#a .line,#f .line{fill:none;stroke:#ffef00;stroke-width:24px;}</style><g><g id="a"><path class="fill" d="M479.654,42c3.572,-6.188 10.175,-10 17.32,-10c7.146,0 13.748,3.812 17.321,10c55.477,96.09 225.166,390 225.166,390l-484.974,0c0,0 169.689,-293.91 225.167,-390Z" /><path class="line" d="M479.654,42c3.572,-6.188 10.175,-10 17.32,-10c7.146,0 13.748,3.812 17.321,10c75.435,130.657 374.898,649.343 450.333,780c3.573,6.188 3.573,13.812 0,20c-3.573,6.188 -10.175,10 -17.321,10c-150.87,0 -749.796,0 -900.666,0c-7.145,0 -13.748,-3.812 -17.32,-10c-3.573,-6.188 -3.573,-13.812 0,-20c75.434,-130.657 374.898,-649.343 450.333,-780Z" /><path class="line" d="M234.725,462.232c10.682,-18.695 30.563,-30.232 52.094,-30.232c89.791,0 328.408,0 418.001,0c21.436,0 41.244,11.436 51.962,30c44.636,77.313 163.209,282.687 207.846,360c3.573,6.188 3.573,13.812 0,20c-3.573,6.188 -10.175,10 -17.321,10c-150.929,0 -750.266,0 -900.843,0c-7.13,0 -13.72,-3.795 -17.299,-9.961c-3.578,-6.167 -3.603,-13.772 -0.066,-19.962c44.1,-77.176 161.331,-282.329 205.626,-359.845Z" /></g><g id="f"><path class="fill" d="M1711.9,432l-487.461,0c0,0 -153.932,-266.618 -216.507,-375c-5.359,-9.282 -5.359,-20.718 0,-30c5.359,-9.282 15.263,-15 25.981,-15c168.447,0 698.225,0 866.292,0c10.694,0 20.579,5.693 25.947,14.942c5.367,9.25 5.406,20.657 0.1,29.942c-61.89,108.308 -214.352,375.116 -214.352,375.116Z" /><path class="line" d="M1484.24,822c-3.572,6.188 -10.175,10 -17.32,10c-7.146,0 -13.748,-3.812 -17.321,-10c-75.435,-130.657 -374.898,-649.343 -450.333,-780c-3.573,-6.188 -3.573,-13.812 0,-20c3.573,-6.188 10.175,-10 17.32,-10c150.87,0 749.797,0 900.667,0c7.145,0 13.748,3.812 17.32,10c3.573,6.188 3.573,13.812 0,20c-75.435,130.657 -374.898,649.343 -450.333,780Z" /><path class="line" d="M1484.24,822c-3.572,6.188 -10.175,10 -17.32,10c-7.146,0 -13.748,-3.812 -17.321,-10c-44.636,-77.313 -163.209,-282.687 -207.846,-360c-3.573,-6.188 -3.573,-13.812 0,-20c3.573,-6.188 10.175,-10 17.321,-10c89.273,0 326.419,0 415.692,0c7.145,0 13.748,3.812 17.32,10c3.573,6.188 3.573,13.812 0,20c-44.636,77.313 -163.209,282.687 -207.846,360Z" /></g></g></svg>